<svg width="150" height="29" viewBox="0 0 150 29" fill="none" xmlns="http://www.w3.org/2000/svg">
<g clip-path="url(#clip0_5760_10788)">
<mask id="mask0_5760_10788" style="mask-type:luminance" maskUnits="userSpaceOnUse" x="0" y="0" width="150" height="29">
<path d="M150 0H0V29H150V0Z" fill="white"/>
</mask>
<g mask="url(#mask0_5760_10788)">
<path d="M8.45949 17.4472H3.02718V28.6415H0.000976562V0.239258H8.30371C14.633 0.239258 15.8558 5.34183 15.8558 7.77005V9.84263C15.8549 12.3517 14.631 17.4472 8.45949 17.4472ZM12.8658 7.85293C12.8658 3.82733 9.87387 3.26775 8.22285 3.26775H3.02718V14.4228H8.30271C9.95374 14.4228 12.8668 13.825 12.8668 9.80144L12.8658 7.85293Z" fill="#EC0066"/>
<path d="M22.3438 28.6414V0.239136H37.4897V3.26562H25.3351V12.109H36.5853V15.139H25.3356V25.6536H37.4902V28.6414H22.3438Z" fill="#EC0066"/>
<path d="M58.1056 28.6415L52.5988 16.6521H47.994V28.6415H44.9678V0.239258H53.2671C59.6028 0.239258 60.8614 5.29964 60.8614 7.73137V9.08262C60.8614 11.1974 59.9188 15.1391 55.7868 16.3708L61.5321 28.6415H58.1056ZM57.8277 7.85092C57.8277 3.82532 54.8387 3.26574 53.1877 3.26574H47.9925V13.6638H53.2641C54.9186 13.6638 57.8282 13.0268 57.8282 9.04243L57.8277 7.85092Z" fill="#EC0066"/>
<path d="M72.0706 3.26574V12.1513H83.3202V15.1778H72.0706V28.64H69.0781V0.239258H84.2275V3.26574H72.0706Z" fill="#EC0066"/>
<path d="M90.5181 28.6415V0.239258H105.665V3.26574H93.5111V12.1091H104.764V15.1391H93.5111V25.6537H105.665V28.6415H90.5181Z" fill="#EC0066"/>
<path d="M120.654 29.0001C114.475 29.0001 112.747 23.8624 112.747 21.3533V7.48917C112.747 5.05794 114.356 -0.00244141 120.692 -0.00244141C126.833 -0.00244141 128.599 5.05794 128.599 7.52785H125.573C125.573 3.58312 122.267 2.98536 120.693 2.98536C119.081 2.98536 115.737 3.58313 115.737 7.56653V21.3508C115.737 25.3733 119.081 25.9721 120.693 25.9721C122.267 25.9721 125.573 25.3744 125.573 21.3904H128.599C128.599 23.9011 126.948 29.0001 120.654 29.0001Z" fill="#EC0066"/>
<path d="M143.157 3.30793V28.6415H140.13V3.30793H133.284V0.239258H150.003V3.30793H143.157Z" fill="#EC0066"/>
</g>
</g>
<defs>
<clipPath id="clip0_5760_10788">
<rect width="150" height="29" fill="white"/>
</clipPath>
</defs>
</svg>
